<svg xmlns="http://www.w3.org/2000/svg" width="1792" height="1035" style="cursor: move;"><g transform="translate(-171.19455248744862,-177.82704729070412) scale(1.0732602863934533)"><path class="link" marker-end="" d="M632.6666666666667,347.5C724.1666666666667,347.5 724.1666666666667,437.5 815.6666666666667,437.5" style="stroke-width: 1.03; stroke-opacity: 0.604411; stroke: rgb(80, 80, 80); fill: none; opacity: 1;"></path><path class="link" marker-end="" d="M632.6666666666667,347.5C724.1666666666667,347.5 724.1666666666667,482.5 815.6666666666667,482.5" style="stroke-width: 1.03; stroke-opacity: 0.849147; stroke: rgb(80, 80, 80); fill: none; opacity: 1;"></path><path class="link" marker-end="" d="M632.6666666666667,347.5C724.1666666666667,347.5 724.1666666666667,527.5 815.6666666666667,527.5" style="stroke-width: 1.03; stroke-opacity: 0.927157; stroke: rgb(80, 80, 80); fill: none; opacity: 1;"></path><path class="link" marker-end="" d="M632.6666666666667,347.5C724.1666666666667,347.5 724.1666666666667,572.5 815.6666666666667,572.5" style="stroke-width: 1.03; stroke-opacity: 0.103808; stroke: rgb(80, 80, 80); fill: none; opacity: 1;"></path><path class="link" marker-end="" d="M632.6666666666667,347.5C724.1666666666667,347.5 724.1666666666667,617.5 815.6666666666667,617.5" style="stroke-width: 1.03; stroke-opacity: 0.254617; stroke: rgb(80, 80, 80); fill: none; opacity: 1;"></path><path class="link" marker-end="" d="M632.6666666666667,392.5C724.1666666666667,392.5 724.1666666666667,437.5 815.6666666666667,437.5" style="stroke-width: 1.03; stroke-opacity: 0.434539; stroke: rgb(80, 80, 80); fill: none; opacity: 1;"></path><path class="link" marker-end="" d="M632.6666666666667,392.5C724.1666666666667,392.5 724.1666666666667,482.5 815.6666666666667,482.5" style="stroke-width: 1.03; stroke-opacity: 0.909102; stroke: rgb(80, 80, 80); fill: none; opacity: 1;"></path><path class="link" marker-end="" d="M632.6666666666667,392.5C724.1666666666667,392.5 724.1666666666667,527.5 815.6666666666667,527.5" style="stroke-width: 1.03; stroke-opacity: 0.791677; stroke: rgb(80, 80, 80); fill: none; opacity: 1;"></path><path class="link" marker-end="" d="M632.6666666666667,392.5C724.1666666666667,392.5 724.1666666666667,572.5 815.6666666666667,572.5" style="stroke-width: 1.03; stroke-opacity: 0.307884; stroke: rgb(80, 80, 80); fill: none; opacity: 1;"></path><path class="link" marker-end="" d="M632.6666666666667,392.5C724.1666666666667,392.5 724.1666666666667,617.5 815.6666666666667,617.5" style="stroke-width: 1.03; stroke-opacity: 0.636511; stroke: rgb(80, 80, 80); fill: none; opacity: 1;"></path><path class="link" marker-end="" d="M632.6666666666667,437.5C724.1666666666667,437.5 724.1666666666667,437.5 815.6666666666667,437.5" style="stroke-width: 1.03; stroke-opacity: 0.07308; stroke: rgb(80, 80, 80); fill: none; opacity: 1;"></path><path class="link" marker-end="" d="M632.6666666666667,437.5C724.1666666666667,437.5 724.1666666666667,482.5 815.6666666666667,482.5" style="stroke-width: 1.03; stroke-opacity: 0.772113; stroke: rgb(80, 80, 80); fill: none; opacity: 1;"></path><path class="link" marker-end="" d="M632.6666666666667,437.5C724.1666666666667,437.5 724.1666666666667,527.5 815.6666666666667,527.5" style="stroke-width: 1.03; stroke-opacity: 0.629007; stroke: rgb(80, 80, 80); fill: none; opacity: 1;"></path><path class="link" marker-end="" d="M632.6666666666667,437.5C724.1666666666667,437.5 724.1666666666667,572.5 815.6666666666667,572.5" style="stroke-width: 1.03; stroke-opacity: 0.876127; stroke: rgb(80, 80, 80); fill: none; opacity: 1;"></path><path class="link" marker-end="" d="M632.6666666666667,437.5C724.1666666666667,437.5 724.1666666666667,617.5 815.6666666666667,617.5" style="stroke-width: 1.03; stroke-opacity: 0.810338; stroke: rgb(80, 80, 80); fill: none; opacity: 1;"></path><path class="link" marker-end="" d="M632.6666666666667,482.5C724.1666666666667,482.5 724.1666666666667,437.5 815.6666666666667,437.5" style="stroke-width: 1.03; stroke-opacity: 0.717657; stroke: rgb(80, 80, 80); fill: none; opacity: 1;"></path><path class="link" marker-end="" d="M632.6666666666667,482.5C724.1666666666667,482.5 724.1666666666667,482.5 815.6666666666667,482.5" style="stroke-width: 1.03; stroke-opacity: 0.906098; stroke: rgb(80, 80, 80); fill: none; opacity: 1;"></path><path class="link" marker-end="" d="M632.6666666666667,482.5C724.1666666666667,482.5 724.1666666666667,527.5 815.6666666666667,527.5" style="stroke-width: 1.03; stroke-opacity: 0.947634; stroke: rgb(80, 80, 80); fill: none; opacity: 1;"></path><path class="link" marker-end="" d="M632.6666666666667,482.5C724.1666666666667,482.5 724.1666666666667,572.5 815.6666666666667,572.5" style="stroke-width: 1.03; stroke-opacity: 0.138747; stroke: rgb(80, 80, 80); fill: none; opacity: 1;"></path><path class="link" marker-end="" d="M632.6666666666667,482.5C724.1666666666667,482.5 724.1666666666667,617.5 815.6666666666667,617.5" style="stroke-width: 1.03; stroke-opacity: 0.368174; stroke: rgb(80, 80, 80); fill: none; opacity: 1;"></path><path class="link" marker-end="" d="M632.6666666666667,527.5C724.1666666666667,527.5 724.1666666666667,437.5 815.6666666666667,437.5" style="stroke-width: 1.03; stroke-opacity: 0.818261; stroke: rgb(80, 80, 80); fill: none; opacity: 1;"></path><path class="link" marker-end="" d="M632.6666666666667,527.5C724.1666666666667,527.5 724.1666666666667,482.5 815.6666666666667,482.5" style="stroke-width: 1.03; stroke-opacity: 0.645817; stroke: rgb(80, 80, 80); fill: none; opacity: 1;"></path><path class="link" marker-end="" d="M632.6666666666667,527.5C724.1666666666667,527.5 724.1666666666667,527.5 815.6666666666667,527.5" style="stroke-width: 1.03; stroke-opacity: 0.0698616; stroke: rgb(80, 80, 80); fill: none; opacity: 1;"></path><path class="link" marker-end="" d="M632.6666666666667,527.5C724.1666666666667,527.5 724.1666666666667,572.5 815.6666666666667,572.5" style="stroke-width: 1.03; stroke-opacity: 0.420124; stroke: rgb(80, 80, 80); fill: none; opacity: 1;"></path><path class="link" marker-end="" d="M632.6666666666667,527.5C724.1666666666667,527.5 724.1666666666667,617.5 815.6666666666667,617.5" style="stroke-width: 1.03; stroke-opacity: 0.603995; stroke: rgb(80, 80, 80); fill: none; opacity: 1;"></path><path class="link" marker-end="" d="M632.6666666666667,572.5C724.1666666666667,572.5 724.1666666666667,437.5 815.6666666666667,437.5" style="stroke-width: 1.03; stroke-opacity: 0.990995; stroke: rgb(80, 80, 80); fill: none; opacity: 1;"></path><path class="link" marker-end="" d="M632.6666666666667,572.5C724.1666666666667,572.5 724.1666666666667,482.5 815.6666666666667,482.5" style="stroke-width: 1.03; stroke-opacity: 0.296521; stroke: rgb(80, 80, 80); fill: none; opacity: 1;"></path><path class="link" marker-end="" d="M632.6666666666667,572.5C724.1666666666667,572.5 724.1666666666667,527.5 815.6666666666667,527.5" style="stroke-width: 1.03; stroke-opacity: 0.986648; stroke: rgb(80, 80, 80); fill: none; opacity: 1;"></path><path class="link" marker-end="" d="M632.6666666666667,572.5C724.1666666666667,572.5 724.1666666666667,572.5 815.6666666666667,572.5" style="stroke-width: 1.03; stroke-opacity: 0.885544; stroke: rgb(80, 80, 80); fill: none; opacity: 1;"></path><path class="link" marker-end="" d="M632.6666666666667,572.5C724.1666666666667,572.5 724.1666666666667,617.5 815.6666666666667,617.5" style="stroke-width: 1.03; stroke-opacity: 0.940264; stroke: rgb(80, 80, 80); fill: none; opacity: 1;"></path><path class="link" marker-end="" d="M632.6666666666667,617.5C724.1666666666667,617.5 724.1666666666667,437.5 815.6666666666667,437.5" style="stroke-width: 1.03; stroke-opacity: 0.324563; stroke: rgb(80, 80, 80); fill: none; opacity: 1;"></path><path class="link" marker-end="" d="M632.6666666666667,617.5C724.1666666666667,617.5 724.1666666666667,482.5 815.6666666666667,482.5" style="stroke-width: 1.03; stroke-opacity: 0.000366582; stroke: rgb(80, 80, 80); fill: none; opacity: 1;"></path><path class="link" marker-end="" d="M632.6666666666667,617.5C724.1666666666667,617.5 724.1666666666667,527.5 815.6666666666667,527.5" style="stroke-width: 1.03; stroke-opacity: 0.206478; stroke: rgb(80, 80, 80); fill: none; opacity: 1;"></path><path class="link" marker-end="" d="M632.6666666666667,617.5C724.1666666666667,617.5 724.1666666666667,572.5 815.6666666666667,572.5" style="stroke-width: 1.03; stroke-opacity: 0.629895; stroke: rgb(80, 80, 80); fill: none; opacity: 1;"></path><path class="link" marker-end="" d="M632.6666666666667,617.5C724.1666666666667,617.5 724.1666666666667,617.5 815.6666666666667,617.5" style="stroke-width: 1.03; stroke-opacity: 0.187026; stroke: rgb(80, 80, 80); fill: none; opacity: 1;"></path><path class="link" marker-end="" d="M632.6666666666667,662.5C724.1666666666667,662.5 724.1666666666667,437.5 815.6666666666667,437.5" style="stroke-width: 1.03; stroke-opacity: 0.861162; stroke: rgb(80, 80, 80); fill: none; opacity: 1;"></path><path class="link" marker-end="" d="M632.6666666666667,662.5C724.1666666666667,662.5 724.1666666666667,482.5 815.6666666666667,482.5" style="stroke-width: 1.03; stroke-opacity: 0.109049; stroke: rgb(80, 80, 80); fill: none; opacity: 1;"></path><path class="link" marker-end="" d="M632.6666666666667,662.5C724.1666666666667,662.5 724.1666666666667,527.5 815.6666666666667,527.5" style="stroke-width: 1.03; stroke-opacity: 0.319702; stroke: rgb(80, 80, 80); fill: none; opacity: 1;"></path><path class="link" marker-end="" d="M632.6666666666667,662.5C724.1666666666667,662.5 724.1666666666667,572.5 815.6666666666667,572.5" style="stroke-width: 1.03; stroke-opacity: 0.834153; stroke: rgb(80, 80, 80); fill: none; opacity: 1;"></path><path class="link" marker-end="" d="M632.6666666666667,662.5C724.1666666666667,662.5 724.1666666666667,617.5 815.6666666666667,617.5" style="stroke-width: 1.03; stroke-opacity: 0.0304058; stroke: rgb(80, 80, 80); fill: none; opacity: 1;"></path><path class="link" marker-end="" d="M998.6666666666667,482.5C1090.1666666666667,482.5 1090.1666666666667,437.5 1181.6666666666667,437.5" style="stroke-width: 1.03; stroke-opacity: 0.148622; stroke: rgb(80, 80, 80); fill: none; opacity: 1;"></path><path class="link" marker-end="" d="M998.6666666666667,482.5C1090.1666666666667,482.5 1090.1666666666667,482.5 1181.6666666666667,482.5" style="stroke-width: 1.03; stroke-opacity: 0.964439; stroke: rgb(80, 80, 80); fill: none; opacity: 1;"></path><path class="link" marker-end="" d="M998.6666666666667,482.5C1090.1666666666667,482.5 1090.1666666666667,527.5 1181.6666666666667,527.5" style="stroke-width: 1.03; stroke-opacity: 0.476057; stroke: rgb(80, 80, 80); fill: none; opacity: 1;"></path><path class="link" marker-end="" d="M998.6666666666667,482.5C1090.1666666666667,482.5 1090.1666666666667,572.5 1181.6666666666667,572.5" style="stroke-width: 1.03; stroke-opacity: 0.660446; stroke: rgb(80, 80, 80); fill: none; opacity: 1;"></path><path class="link" marker-end="" d="M998.6666666666667,482.5C1090.1666666666667,482.5 1090.1666666666667,617.5 1181.6666666666667,617.5" style="stroke-width: 1.03; stroke-opacity: 0.498599; stroke: rgb(80, 80, 80); fill: none; opacity: 1;"></path><path class="link" marker-end="" d="M1181.6666666666667,392.5C1273.1666666666667,392.5 1273.1666666666667,347.5 1364.6666666666667,347.5" style="stroke-width: 1.03; stroke-opacity: 0.453865; stroke: rgb(80, 80, 80); fill: none; opacity: 1;"></path><path class="link" marker-end="" d="M1181.6666666666667,392.5C1273.1666666666667,392.5 1273.1666666666667,392.5 1364.6666666666667,392.5" style="stroke-width: 1.03; stroke-opacity: 0.515723; stroke: rgb(80, 80, 80); fill: none; opacity: 1;"></path><path class="link" marker-end="" d="M1181.6666666666667,392.5C1273.1666666666667,392.5 1273.1666666666667,437.5 1364.6666666666667,437.5" style="stroke-width: 1.03; stroke-opacity: 0.789224; stroke: rgb(80, 80, 80); fill: none; opacity: 1;"></path><path class="link" marker-end="" d="M1181.6666666666667,392.5C1273.1666666666667,392.5 1273.1666666666667,482.5 1364.6666666666667,482.5" style="stroke-width: 1.03; stroke-opacity: 0.906888; stroke: rgb(80, 80, 80); fill: none; opacity: 1;"></path><path class="link" marker-end="" d="M1181.6666666666667,392.5C1273.1666666666667,392.5 1273.1666666666667,527.5 1364.6666666666667,527.5" style="stroke-width: 1.03; stroke-opacity: 0.19808; stroke: rgb(80, 80, 80); fill: none; opacity: 1;"></path><path class="link" marker-end="" d="M1181.6666666666667,392.5C1273.1666666666667,392.5 1273.1666666666667,572.5 1364.6666666666667,572.5" style="stroke-width: 1.03; stroke-opacity: 0.750165; stroke: rgb(80, 80, 80); fill: none; opacity: 1;"></path><path class="link" marker-end="" d="M1181.6666666666667,392.5C1273.1666666666667,392.5 1273.1666666666667,617.5 1364.6666666666667,617.5" style="stroke-width: 1.03; stroke-opacity: 0.917741; stroke: rgb(80, 80, 80); fill: none; opacity: 1;"></path><path class="link" marker-end="" d="M1181.6666666666667,392.5C1273.1666666666667,392.5 1273.1666666666667,662.5 1364.6666666666667,662.5" style="stroke-width: 1.03; stroke-opacity: 0.302039; stroke: rgb(80, 80, 80); fill: none; opacity: 1;"></path><path class="link" marker-end="" d="M1181.6666666666667,437.5C1273.1666666666667,437.5 1273.1666666666667,347.5 1364.6666666666667,347.5" style="stroke-width: 1.03; stroke-opacity: 0.466984; stroke: rgb(80, 80, 80); fill: none; opacity: 1;"></path><path class="link" marker-end="" d="M1181.6666666666667,437.5C1273.1666666666667,437.5 1273.1666666666667,392.5 1364.6666666666667,392.5" style="stroke-width: 1.03; stroke-opacity: 0.844628; stroke: rgb(80, 80, 80); fill: none; opacity: 1;"></path><path class="link" marker-end="" d="M1181.6666666666667,437.5C1273.1666666666667,437.5 1273.1666666666667,437.5 1364.6666666666667,437.5" style="stroke-width: 1.03; stroke-opacity: 0.00112291; stroke: rgb(80, 80, 80); fill: none; opacity: 1;"></path><path class="link" marker-end="" d="M1181.6666666666667,437.5C1273.1666666666667,437.5 1273.1666666666667,482.5 1364.6666666666667,482.5" style="stroke-width: 1.03; stroke-opacity: 0.844248; stroke: rgb(80, 80, 80); fill: none; opacity: 1;"></path><path class="link" marker-end="" d="M1181.6666666666667,437.5C1273.1666666666667,437.5 1273.1666666666667,527.5 1364.6666666666667,527.5" style="stroke-width: 1.03; stroke-opacity: 0.26286; stroke: rgb(80, 80, 80); fill: none; opacity: 1;"></path><path class="link" marker-end="" d="M1181.6666666666667,437.5C1273.1666666666667,437.5 1273.1666666666667,572.5 1364.6666666666667,572.5" style="stroke-width: 1.03; stroke-opacity: 0.937784; stroke: rgb(80, 80, 80); fill: none; opacity: 1;"></path><path class="link" marker-end="" d="M1181.6666666666667,437.5C1273.1666666666667,437.5 1273.1666666666667,617.5 1364.6666666666667,617.5" style="stroke-width: 1.03; stroke-opacity: 0.973617; stroke: rgb(80, 80, 80); fill: none; opacity: 1;"></path><path class="link" marker-end="" d="M1181.6666666666667,437.5C1273.1666666666667,437.5 1273.1666666666667,662.5 1364.6666666666667,662.5" style="stroke-width: 1.03; stroke-opacity: 0.425792; stroke: rgb(80, 80, 80); fill: none; opacity: 1;"></path><path class="link" marker-end="" d="M1181.6666666666667,482.5C1273.1666666666667,482.5 1273.1666666666667,347.5 1364.6666666666667,347.5" style="stroke-width: 1.03; stroke-opacity: 0.698078; stroke: rgb(80, 80, 80); fill: none; opacity: 1;"></path><path class="link" marker-end="" d="M1181.6666666666667,482.5C1273.1666666666667,482.5 1273.1666666666667,392.5 1364.6666666666667,392.5" style="stroke-width: 1.03; stroke-opacity: 0.122679; stroke: rgb(80, 80, 80); fill: none; opacity: 1;"></path><path class="link" marker-end="" d="M1181.6666666666667,482.5C1273.1666666666667,482.5 1273.1666666666667,437.5 1364.6666666666667,437.5" style="stroke-width: 1.03; stroke-opacity: 0.799879; stroke: rgb(80, 80, 80); fill: none; opacity: 1;"></path><path class="link" marker-end="" d="M1181.6666666666667,482.5C1273.1666666666667,482.5 1273.1666666666667,482.5 1364.6666666666667,482.5" style="stroke-width: 1.03; stroke-opacity: 0.581224; stroke: rgb(80, 80, 80); fill: none; opacity: 1;"></path><path class="link" marker-end="" d="M1181.6666666666667,482.5C1273.1666666666667,482.5 1273.1666666666667,527.5 1364.6666666666667,527.5" style="stroke-width: 1.03; stroke-opacity: 0.570591; stroke: rgb(80, 80, 80); fill: none; opacity: 1;"></path><path class="link" marker-end="" d="M1181.6666666666667,482.5C1273.1666666666667,482.5 1273.1666666666667,572.5 1364.6666666666667,572.5" style="stroke-width: 1.03; stroke-opacity: 0.327354; stroke: rgb(80, 80, 80); fill: none; opacity: 1;"></path><path class="link" marker-end="" d="M1181.6666666666667,482.5C1273.1666666666667,482.5 1273.1666666666667,617.5 1364.6666666666667,617.5" style="stroke-width: 1.03; stroke-opacity: 0.135355; stroke: rgb(80, 80, 80); fill: none; opacity: 1;"></path><path class="link" marker-end="" d="M1181.6666666666667,482.5C1273.1666666666667,482.5 1273.1666666666667,662.5 1364.6666666666667,662.5" style="stroke-width: 1.03; stroke-opacity: 0.703926; stroke: rgb(80, 80, 80); fill: none; opacity: 1;"></path><path class="link" marker-end="" d="M1181.6666666666667,527.5C1273.1666666666667,527.5 1273.1666666666667,347.5 1364.6666666666667,347.5" style="stroke-width: 1.03; stroke-opacity: 0.955835; stroke: rgb(80, 80, 80); fill: none; opacity: 1;"></path><path class="link" marker-end="" d="M1181.6666666666667,527.5C1273.1666666666667,527.5 1273.1666666666667,392.5 1364.6666666666667,392.5" style="stroke-width: 1.03; stroke-opacity: 0.0883444; stroke: rgb(80, 80, 80); fill: none; opacity: 1;"></path><path class="link" marker-end="" d="M1181.6666666666667,527.5C1273.1666666666667,527.5 1273.1666666666667,437.5 1364.6666666666667,437.5" style="stroke-width: 1.03; stroke-opacity: 0.885437; stroke: rgb(80, 80, 80); fill: none; opacity: 1;"></path><path class="link" marker-end="" d="M1181.6666666666667,527.5C1273.1666666666667,527.5 1273.1666666666667,482.5 1364.6666666666667,482.5" style="stroke-width: 1.03; stroke-opacity: 0.930226; stroke: rgb(80, 80, 80); fill: none; opacity: 1;"></path><path class="link" marker-end="" d="M1181.6666666666667,527.5C1273.1666666666667,527.5 1273.1666666666667,527.5 1364.6666666666667,527.5" style="stroke-width: 1.03; stroke-opacity: 0.643196; stroke: rgb(80, 80, 80); fill: none; opacity: 1;"></path><path class="link" marker-end="" d="M1181.6666666666667,527.5C1273.1666666666667,527.5 1273.1666666666667,572.5 1364.6666666666667,572.5" style="stroke-width: 1.03; stroke-opacity: 0.678951; stroke: rgb(80, 80, 80); fill: none; opacity: 1;"></path><path class="link" marker-end="" d="M1181.6666666666667,527.5C1273.1666666666667,527.5 1273.1666666666667,617.5 1364.6666666666667,617.5" style="stroke-width: 1.03; stroke-opacity: 0.704028; stroke: rgb(80, 80, 80); fill: none; opacity: 1;"></path><path class="link" marker-end="" d="M1181.6666666666667,527.5C1273.1666666666667,527.5 1273.1666666666667,662.5 1364.6666666666667,662.5" style="stroke-width: 1.03; stroke-opacity: 0.292881; stroke: rgb(80, 80, 80); fill: none; opacity: 1;"></path><path class="link" marker-end="" d="M1181.6666666666667,572.5C1273.1666666666667,572.5 1273.1666666666667,347.5 1364.6666666666667,347.5" style="stroke-width: 1.03; stroke-opacity: 0.10689; stroke: rgb(80, 80, 80); fill: none; opacity: 1;"></path><path class="link" marker-end="" d="M1181.6666666666667,572.5C1273.1666666666667,572.5 1273.1666666666667,392.5 1364.6666666666667,392.5" style="stroke-width: 1.03; stroke-opacity: 0.54751; stroke: rgb(80, 80, 80); fill: none; opacity: 1;"></path><path class="link" marker-end="" d="M1181.6666666666667,572.5C1273.1666666666667,572.5 1273.1666666666667,437.5 1364.6666666666667,437.5" style="stroke-width: 1.03; stroke-opacity: 0.632451; stroke: rgb(80, 80, 80); fill: none; opacity: 1;"></path><path class="link" marker-end="" d="M1181.6666666666667,572.5C1273.1666666666667,572.5 1273.1666666666667,482.5 1364.6666666666667,482.5" style="stroke-width: 1.03; stroke-opacity: 0.499809; stroke: rgb(80, 80, 80); fill: none; opacity: 1;"></path><path class="link" marker-end="" d="M1181.6666666666667,572.5C1273.1666666666667,572.5 1273.1666666666667,527.5 1364.6666666666667,527.5" style="stroke-width: 1.03; stroke-opacity: 0.0307185; stroke: rgb(80, 80, 80); fill: none; opacity: 1;"></path><path class="link" marker-end="" d="M1181.6666666666667,572.5C1273.1666666666667,572.5 1273.1666666666667,572.5 1364.6666666666667,572.5" style="stroke-width: 1.03; stroke-opacity: 0.314955; stroke: rgb(80, 80, 80); fill: none; opacity: 1;"></path><path class="link" marker-end="" d="M1181.6666666666667,572.5C1273.1666666666667,572.5 1273.1666666666667,617.5 1364.6666666666667,617.5" style="stroke-width: 1.03; stroke-opacity: 0.93379; stroke: rgb(80, 80, 80); fill: none; opacity: 1;"></path><path class="link" marker-end="" d="M1181.6666666666667,572.5C1273.1666666666667,572.5 1273.1666666666667,662.5 1364.6666666666667,662.5" style="stroke-width: 1.03; stroke-opacity: 0.0187876; stroke: rgb(80, 80, 80); fill: none; opacity: 1;"></path><path class="link" marker-end="" d="M1181.6666666666667,617.5C1273.1666666666667,617.5 1273.1666666666667,347.5 1364.6666666666667,347.5" style="stroke-width: 1.03; stroke-opacity: 0.379054; stroke: rgb(80, 80, 80); fill: none; opacity: 1;"></path><path class="link" marker-end="" d="M1181.6666666666667,617.5C1273.1666666666667,617.5 1273.1666666666667,392.5 1364.6666666666667,392.5" style="stroke-width: 1.03; stroke-opacity: 0.366202; stroke: rgb(80, 80, 80); fill: none; opacity: 1;"></path><path class="link" marker-end="" d="M1181.6666666666667,617.5C1273.1666666666667,617.5 1273.1666666666667,437.5 1364.6666666666667,437.5" style="stroke-width: 1.03; stroke-opacity: 0.752064; stroke: rgb(80, 80, 80); fill: none; opacity: 1;"></path><path class="link" marker-end="" d="M1181.6666666666667,617.5C1273.1666666666667,617.5 1273.1666666666667,482.5 1364.6666666666667,482.5" style="stroke-width: 1.03; stroke-opacity: 0.863244; stroke: rgb(80, 80, 80); fill: none; opacity: 1;"></path><path class="link" marker-end="" d="M1181.6666666666667,617.5C1273.1666666666667,617.5 1273.1666666666667,527.5 1364.6666666666667,527.5" style="stroke-width: 1.03; stroke-opacity: 0.567792; stroke: rgb(80, 80, 80); fill: none; opacity: 1;"></path><path class="link" marker-end="" d="M1181.6666666666667,617.5C1273.1666666666667,617.5 1273.1666666666667,572.5 1364.6666666666667,572.5" style="stroke-width: 1.03; stroke-opacity: 0.533432; stroke: rgb(80, 80, 80); fill: none; opacity: 1;"></path><path class="link" marker-end="" d="M1181.6666666666667,617.5C1273.1666666666667,617.5 1273.1666666666667,617.5 1364.6666666666667,617.5" style="stroke-width: 1.03; stroke-opacity: 0.184707; stroke: rgb(80, 80, 80); fill: none; opacity: 1;"></path><path class="link" marker-end="" d="M1181.6666666666667,617.5C1273.1666666666667,617.5 1273.1666666666667,662.5 1364.6666666666667,662.5" style="stroke-width: 1.03; stroke-opacity: 0.9487; stroke: rgb(80, 80, 80); fill: none; opacity: 1;"></path><path class="link" marker-end="" d="M815.6666666666667,392.5C907.1666666666667,392.5 907.1666666666667,527.5 998.6666666666667,527.5" style="stroke-width: 1.03; stroke-opacity: 0.723452; stroke: rgb(80, 80, 80); fill: none; opacity: 1;"></path><path class="link" marker-end="" d="M815.6666666666667,437.5C907.1666666666667,437.5 907.1666666666667,527.5 998.6666666666667,527.5" style="stroke-width: 1.03; stroke-opacity: 0.994977; stroke: rgb(80, 80, 80); fill: none; opacity: 1;"></path><path class="link" marker-end="" d="M815.6666666666667,482.5C907.1666666666667,482.5 907.1666666666667,527.5 998.6666666666667,527.5" style="stroke-width: 1.03; stroke-opacity: 0.120715; stroke: rgb(80, 80, 80); fill: none; opacity: 1;"></path><path class="link" marker-end="" d="M815.6666666666667,527.5C907.1666666666667,527.5 907.1666666666667,527.5 998.6666666666667,527.5" style="stroke-width: 1.03; stroke-opacity: 0.717456; stroke: rgb(80, 80, 80); fill: none; opacity: 1;"></path><path class="link" marker-end="" d="M815.6666666666667,572.5C907.1666666666667,572.5 907.1666666666667,527.5 998.6666666666667,527.5" style="stroke-width: 1.03; stroke-opacity: 0.196957; stroke: rgb(80, 80, 80); fill: none; opacity: 1;"></path><path class="link" marker-end="" d="M815.6666666666667,617.5C907.1666666666667,617.5 907.1666666666667,527.5 998.6666666666667,527.5" style="stroke-width: 1.03; stroke-opacity: 0.773127; stroke: rgb(80, 80, 80); fill: none; opacity: 1;"></path><path class="link" marker-end="" d="M998.6666666666667,527.5C1090.1666666666667,527.5 1090.1666666666667,437.5 1181.6666666666667,437.5" style="stroke-width: 1.03; stroke-opacity: 0.47105; stroke: rgb(80, 80, 80); fill: none; opacity: 1;"></path><path class="link" marker-end="" d="M998.6666666666667,527.5C1090.1666666666667,527.5 1090.1666666666667,482.5 1181.6666666666667,482.5" style="stroke-width: 1.03; stroke-opacity: 0.148695; stroke: rgb(80, 80, 80); fill: none; opacity: 1;"></path><path class="link" marker-end="" d="M998.6666666666667,527.5C1090.1666666666667,527.5 1090.1666666666667,527.5 1181.6666666666667,527.5" style="stroke-width: 1.03; stroke-opacity: 0.478083; stroke: rgb(80, 80, 80); fill: none; opacity: 1;"></path><path class="link" marker-end="" d="M998.6666666666667,527.5C1090.1666666666667,527.5 1090.1666666666667,572.5 1181.6666666666667,572.5" style="stroke-width: 1.03; stroke-opacity: 0.441989; stroke: rgb(80, 80, 80); fill: none; opacity: 1;"></path><path class="link" marker-end="" d="M998.6666666666667,527.5C1090.1666666666667,527.5 1090.1666666666667,617.5 1181.6666666666667,617.5" style="stroke-width: 1.03; stroke-opacity: 0.830249; stroke: rgb(80, 80, 80); fill: none; opacity: 1;"></path><path class="link" marker-end="" d="M632.6666666666667,347.5C724.1666666666667,347.5 724.1666666666667,392.5 815.6666666666667,392.5" style="stroke-width: 1.03; stroke-opacity: 0.237133; stroke: rgb(80, 80, 80); fill: none;"></path><path class="link" marker-end="" d="M632.6666666666667,392.5C724.1666666666667,392.5 724.1666666666667,392.5 815.6666666666667,392.5" style="stroke-width: 1.03; stroke-opacity: 0.664279; stroke: rgb(80, 80, 80); fill: none;"></path><path class="link" marker-end="" d="M632.6666666666667,437.5C724.1666666666667,437.5 724.1666666666667,392.5 815.6666666666667,392.5" style="stroke-width: 1.03; stroke-opacity: 0.548663; stroke: rgb(80, 80, 80); fill: none;"></path><path class="link" marker-end="" d="M632.6666666666667,482.5C724.1666666666667,482.5 724.1666666666667,392.5 815.6666666666667,392.5" style="stroke-width: 1.03; stroke-opacity: 0.69965; stroke: rgb(80, 80, 80); fill: none;"></path><path class="link" marker-end="" d="M632.6666666666667,527.5C724.1666666666667,527.5 724.1666666666667,392.5 815.6666666666667,392.5" style="stroke-width: 1.03; stroke-opacity: 0.133944; stroke: rgb(80, 80, 80); fill: none;"></path><path class="link" marker-end="" d="M632.6666666666667,572.5C724.1666666666667,572.5 724.1666666666667,392.5 815.6666666666667,392.5" style="stroke-width: 1.03; stroke-opacity: 0.526638; stroke: rgb(80, 80, 80); fill: none;"></path><path class="link" marker-end="" d="M632.6666666666667,617.5C724.1666666666667,617.5 724.1666666666667,392.5 815.6666666666667,392.5" style="stroke-width: 1.03; stroke-opacity: 0.310216; stroke: rgb(80, 80, 80); fill: none;"></path><path class="link" marker-end="" d="M632.6666666666667,662.5C724.1666666666667,662.5 724.1666666666667,392.5 815.6666666666667,392.5" style="stroke-width: 1.03; stroke-opacity: 0.692949; stroke: rgb(80, 80, 80); fill: none;"></path><path class="link" marker-end="" d="M815.6666666666667,392.5C907.1666666666667,392.5 907.1666666666667,482.5 998.6666666666667,482.5" style="stroke-width: 1.03; stroke-opacity: 0.0242524; stroke: rgb(80, 80, 80); fill: none;"></path><path class="link" marker-end="" d="M815.6666666666667,437.5C907.1666666666667,437.5 907.1666666666667,482.5 998.6666666666667,482.5" style="stroke-width: 1.03; stroke-opacity: 0.611144; stroke: rgb(80, 80, 80); fill: none;"></path><path class="link" marker-end="" d="M815.6666666666667,482.5C907.1666666666667,482.5 907.1666666666667,482.5 998.6666666666667,482.5" style="stroke-width: 1.03; stroke-opacity: 0.505698; stroke: rgb(80, 80, 80); fill: none;"></path><path class="link" marker-end="" d="M815.6666666666667,527.5C907.1666666666667,527.5 907.1666666666667,482.5 998.6666666666667,482.5" style="stroke-width: 1.03; stroke-opacity: 0.463545; stroke: rgb(80, 80, 80); fill: none;"></path><path class="link" marker-end="" d="M815.6666666666667,572.5C907.1666666666667,572.5 907.1666666666667,482.5 998.6666666666667,482.5" style="stroke-width: 1.03; stroke-opacity: 0.0722704; stroke: rgb(80, 80, 80); fill: none;"></path><path class="link" marker-end="" d="M815.6666666666667,617.5C907.1666666666667,617.5 907.1666666666667,482.5 998.6666666666667,482.5" style="stroke-width: 1.03; stroke-opacity: 0.748972; stroke: rgb(80, 80, 80); fill: none;"></path><path class="link" marker-end="" d="M998.6666666666667,482.5C1090.1666666666667,482.5 1090.1666666666667,392.5 1181.6666666666667,392.5" style="stroke-width: 1.03; stroke-opacity: 0.0855154; stroke: rgb(80, 80, 80); fill: none;"></path><path class="link" marker-end="" d="M998.6666666666667,527.5C1090.1666666666667,527.5 1090.1666666666667,392.5 1181.6666666666667,392.5" style="stroke-width: 1.03; stroke-opacity: 0.925036; stroke: rgb(80, 80, 80); fill: none;"></path><circle r="12.5" class="node" id="0_0" cx="632.6666666666667" cy="347.5" style="fill: rgb(103, 78, 167); stroke: rgb(51, 51, 51); opacity: 1;"></circle><circle r="12.5" class="node" id="0_1" cx="632.6666666666667" cy="392.5" style="fill: rgb(103, 78, 167); stroke: rgb(51, 51, 51); opacity: 1;"></circle><circle r="12.5" class="node" id="0_2" cx="632.6666666666667" cy="437.5" style="fill: rgb(103, 78, 167); stroke: rgb(51, 51, 51); opacity: 1;"></circle><circle r="12.5" class="node" id="0_3" cx="632.6666666666667" cy="482.5" style="fill: rgb(103, 78, 167); stroke: rgb(51, 51, 51); opacity: 1;"></circle><circle r="12.5" class="node" id="0_4" cx="632.6666666666667" cy="527.5" style="fill: rgb(103, 78, 167); stroke: rgb(51, 51, 51); opacity: 1;"></circle><circle r="12.5" class="node" id="0_5" cx="632.6666666666667" cy="572.5" style="fill: rgb(103, 78, 167); stroke: rgb(51, 51, 51); opacity: 1;"></circle><circle r="12.5" class="node" id="0_6" cx="632.6666666666667" cy="617.5" style="fill: rgb(103, 78, 167); stroke: rgb(51, 51, 51); opacity: 1;"></circle><circle r="12.5" class="node" id="0_7" cx="632.6666666666667" cy="662.5" style="fill: rgb(103, 78, 167); stroke: rgb(51, 51, 51); opacity: 1;"></circle><circle r="12.5" class="node" id="1_0" cx="815.6666666666667" cy="392.5" style="fill: rgb(103, 78, 167); stroke: rgb(51, 51, 51); opacity: 1;"></circle><circle r="12.5" class="node" id="1_1" cx="815.6666666666667" cy="437.5" style="fill: rgb(103, 78, 167); stroke: rgb(51, 51, 51); opacity: 1;"></circle><circle r="12.5" class="node" id="1_2" cx="815.6666666666667" cy="482.5" style="fill: rgb(103, 78, 167); stroke: rgb(51, 51, 51); opacity: 1;"></circle><circle r="12.5" class="node" id="1_3" cx="815.6666666666667" cy="527.5" style="fill: rgb(103, 78, 167); stroke: rgb(51, 51, 51); opacity: 1;"></circle><circle r="12.5" class="node" id="1_4" cx="815.6666666666667" cy="572.5" style="fill: rgb(103, 78, 167); stroke: rgb(51, 51, 51); opacity: 1;"></circle><circle r="12.5" class="node" id="1_5" cx="815.6666666666667" cy="617.5" style="fill: rgb(103, 78, 167); stroke: rgb(51, 51, 51); opacity: 1;"></circle><circle r="12.5" class="node" id="2_0" cx="998.6666666666667" cy="482.5" style="fill: rgb(103, 78, 167); stroke: rgb(51, 51, 51); opacity: 1;"></circle><circle r="12.5" class="node" id="2_1" cx="998.6666666666667" cy="527.5" style="fill: rgb(103, 78, 167); stroke: rgb(51, 51, 51); opacity: 1;"></circle><circle r="12.5" class="node" id="3_0" cx="1181.6666666666667" cy="392.5" style="fill: rgb(103, 78, 167); stroke: rgb(51, 51, 51); opacity: 1;"></circle><circle r="12.5" class="node" id="3_1" cx="1181.6666666666667" cy="437.5" style="fill: rgb(103, 78, 167); stroke: rgb(51, 51, 51); opacity: 1;"></circle><circle r="12.5" class="node" id="3_2" cx="1181.6666666666667" cy="482.5" style="fill: rgb(103, 78, 167); stroke: rgb(51, 51, 51); opacity: 1;"></circle><circle r="12.5" class="node" id="3_3" cx="1181.6666666666667" cy="527.5" style="fill: rgb(103, 78, 167); stroke: rgb(51, 51, 51); opacity: 1;"></circle><circle r="12.5" class="node" id="3_4" cx="1181.6666666666667" cy="572.5" style="fill: rgb(103, 78, 167); stroke: rgb(51, 51, 51); opacity: 1;"></circle><circle r="12.5" class="node" id="3_5" cx="1181.6666666666667" cy="617.5" style="fill: rgb(103, 78, 167); stroke: rgb(51, 51, 51); opacity: 1;"></circle><circle r="12.5" class="node" id="4_0" cx="1364.6666666666667" cy="347.5" style="fill: rgb(103, 78, 167); stroke: rgb(51, 51, 51); opacity: 1;"></circle><circle r="12.5" class="node" id="4_1" cx="1364.6666666666667" cy="392.5" style="fill: rgb(103, 78, 167); stroke: rgb(51, 51, 51); opacity: 1;"></circle><circle r="12.5" class="node" id="4_2" cx="1364.6666666666667" cy="437.5" style="fill: rgb(103, 78, 167); stroke: rgb(51, 51, 51); opacity: 1;"></circle><circle r="12.5" class="node" id="4_3" cx="1364.6666666666667" cy="482.5" style="fill: rgb(103, 78, 167); stroke: rgb(51, 51, 51); opacity: 1;"></circle><circle r="12.5" class="node" id="4_4" cx="1364.6666666666667" cy="527.5" style="fill: rgb(103, 78, 167); stroke: rgb(51, 51, 51); opacity: 1;"></circle><circle r="12.5" class="node" id="4_5" cx="1364.6666666666667" cy="572.5" style="fill: rgb(103, 78, 167); stroke: rgb(51, 51, 51); opacity: 1;"></circle><circle r="12.5" class="node" id="4_6" cx="1364.6666666666667" cy="617.5" style="fill: rgb(103, 78, 167); stroke: rgb(51, 51, 51); opacity: 1;"></circle><circle r="12.5" class="node" id="4_7" cx="1364.6666666666667" cy="662.5" style="fill: rgb(103, 78, 167); stroke: rgb(51, 51, 51); opacity: 1;"></circle></g><defs><marker id="arrow" viewBox="0 -5 10 10" markerWidth="7" markerHeight="7" orient="auto" refX="47"><path d="M0,-5L10,0L0,5" style="stroke: rgb(80, 80, 80); fill: none;"></path></marker></defs></svg>